<?xml version="1.0" encoding="UTF-8" standalone="no"?>
<!-- Created with Inkscape (http://www.inkscape.org/) -->

<svg
   xmlns:dc="http://purl.org/dc/elements/1.1/"
   xmlns:cc="http://creativecommons.org/ns#"
   xmlns:rdf="http://www.w3.org/1999/02/22-rdf-syntax-ns#"
   xmlns:svg="http://www.w3.org/2000/svg"
   xmlns="http://www.w3.org/2000/svg"
   xmlns:sodipodi="http://sodipodi.sourceforge.net/DTD/sodipodi-0.dtd"
   xmlns:inkscape="http://www.inkscape.org/namespaces/inkscape"
   width="1900"
   height="1000"
   id="svg2"
   version="1.1"
   inkscape:version="0.48.3.1 r9886"
   sodipodi:docname="mockup.svg">
  <defs
     id="defs4" />
  <sodipodi:namedview
     id="base"
     pagecolor="#ffffff"
     bordercolor="#666666"
     borderopacity="1.0"
     inkscape:pageopacity="0.0"
     inkscape:pageshadow="2"
     inkscape:zoom="0.5"
     inkscape:cx="1229.8303"
     inkscape:cy="600.99039"
     inkscape:document-units="px"
     inkscape:current-layer="layer1"
     showgrid="false"
     inkscape:window-width="1920"
     inkscape:window-height="1025"
     inkscape:window-x="-2"
     inkscape:window-y="-3"
     inkscape:window-maximized="1" />
  <metadata
     id="metadata7">
    <rdf:RDF>
      <cc:Work
         rdf:about="">
        <dc:format>image/svg+xml</dc:format>
        <dc:type
           rdf:resource="http://purl.org/dc/dcmitype/StillImage" />
        <dc:title />
      </cc:Work>
    </rdf:RDF>
  </metadata>
  <g
     inkscape:label="Layer 1"
     inkscape:groupmode="layer"
     id="layer1"
     transform="translate(0,-52.362183)">
    <rect
       style="color:#000000;fill:#333333;fill-opacity:1;fill-rule:nonzero;stroke:none;stroke-width:0;marker:none;visibility:visible;display:inline;overflow:visible;enable-background:accumulate"
       id="rect2985"
       width="1900"
       height="60"
       x="0"
       y="52.362183" />
    <rect
       style="color:#000000;fill:none;stroke:#000000;stroke-width:1;stroke-miterlimit:4;stroke-opacity:1;stroke-dasharray:1,2;marker:none;visibility:visible;display:inline;overflow:visible;enable-background:accumulate;stroke-dashoffset:0"
       id="rect2987"
       width="750"
       height="1100"
       x="575"
       y="29.362183" />
    <text
       xml:space="preserve"
       style="font-size:40px;font-style:normal;font-variant:normal;font-weight:normal;font-stretch:normal;line-height:125%;letter-spacing:0px;word-spacing:0px;fill:#ffffff;fill-opacity:1;stroke:none;font-family:Montserrat Subrayada;-inkscape-font-specification:Montserrat Subrayada"
       x="579.84387"
       y="96.294052"
       id="text3757"
       sodipodi:linespacing="125%"><tspan
         sodipodi:role="line"
         id="tspan3759"
         x="579.84387"
         y="96.294052">seb spain</tspan></text>
    <rect
       style="color:#000000;fill:none;stroke:#333333;stroke-width:3;stroke-linecap:round;stroke-linejoin:bevel;stroke-miterlimit:4;stroke-opacity:1;stroke-dasharray:none;stroke-dashoffset:0;marker:none;visibility:visible;display:inline;overflow:visible;enable-background:accumulate"
       id="rect3787"
       width="226.21222"
       height="226.21222"
       x="576.39392"
       y="274.57547"
       ry="11.5" />
    <rect
       ry="11.499999"
       y="523.67914"
       x="576.39398"
       height="226.21222"
       width="226.21222"
       id="rect3789"
       style="color:#000000;fill:none;stroke:#333333;stroke-width:3;stroke-linecap:round;stroke-linejoin:bevel;stroke-miterlimit:4;stroke-opacity:1;stroke-dasharray:none;stroke-dashoffset:0;marker:none;visibility:visible;display:inline;overflow:visible;enable-background:accumulate" />
    <rect
       style="color:#000000;fill:none;stroke:#333333;stroke-width:3;stroke-linecap:round;stroke-linejoin:bevel;stroke-miterlimit:4;stroke-opacity:1;stroke-dasharray:none;stroke-dashoffset:0;marker:none;visibility:visible;display:inline;overflow:visible;enable-background:accumulate"
       id="rect3791"
       width="226.21222"
       height="226.21222"
       x="836.89392"
       y="274.57547"
       ry="11.499999" />
    <text
       xml:space="preserve"
       style="font-size:28px;font-style:normal;font-variant:normal;font-weight:normal;font-stretch:normal;line-height:125%;letter-spacing:0px;word-spacing:0px;fill:#333333;fill-opacity:1;stroke:none;font-family:Montserrat Alternates;-inkscape-font-specification:Montserrat Alternates"
       x="653.0766"
       y="487.7691"
       id="text3793"
       sodipodi:linespacing="125%"><tspan
         sodipodi:role="line"
         id="tspan3795"
         x="653.0766"
         y="487.7691">Blog</tspan></text>
    <text
       sodipodi:linespacing="125%"
       id="text2991"
       y="488.68787"
       x="883.22614"
       style="font-size:40px;font-style:normal;font-variant:normal;font-weight:normal;font-stretch:normal;line-height:125%;letter-spacing:0px;word-spacing:0px;fill:#333333;fill-opacity:1;stroke:none;font-family:Montserrat Alternates;-inkscape-font-specification:Montserrat Alternates"
       xml:space="preserve"><tspan
         y="488.68787"
         x="883.22614"
         id="tspan2993"
         sodipodi:role="line"
         style="font-size:28px">Research</tspan></text>
    <text
       xml:space="preserve"
       style="font-size:28px;font-style:normal;font-variant:normal;font-weight:normal;font-stretch:normal;line-height:125%;letter-spacing:0px;word-spacing:0px;fill:#333333;fill-opacity:1;stroke:none;font-family:Montserrat Alternates;-inkscape-font-specification:Montserrat Alternates"
       x="644.62616"
       y="733.7691"
       id="text3016"
       sodipodi:linespacing="125%"><tspan
         sodipodi:role="line"
         id="tspan3018"
         x="644.62616"
         y="733.7691">About</tspan></text>
    <rect
       style="color:#000000;fill:#333333;fill-opacity:1;fill-rule:nonzero;stroke:none;stroke-width:0;marker:none;visibility:visible;display:inline;overflow:visible;enable-background:accumulate"
       id="rect2985-4"
       width="1900"
       height="40"
       x="0"
       y="1012.3622" />
    <path
       style="fill:#333333;fill-opacity:1"
       d="m 1201.6447,448.89411 c -6.6646,-0.70337 -11.4668,-2.39624 -15.7908,-5.56666 -1.9402,-1.42254 -5.0035,-7.13445 -4.0048,-7.46738 0.4318,-0.14393 0.6158,-14.39329 0.587,-45.44888 -0.038,-41.1647 0.048,-45.39147 0.9562,-46.92888 0.5489,-0.9293 1.5319,-2.023 2.1843,-2.43045 2.3135,-1.44483 61.9335,-27.05106 62.984,-27.05106 0.5873,0 1.6076,0.5398 2.2674,1.19958 1.0313,1.03148 1.1996,1.99932 1.1996,6.90571 l 0,5.7061 -2.2493,-0.97609 c -5.7644,-2.50154 -3.5798,-3.11815 -31.0107,8.75291 -13.8395,5.98923 -25.8504,11.25423 -26.6909,11.70002 l -1.5282,0.81055 3.3379,1.53747 c 3.782,1.74198 9.4793,2.69065 14.1928,2.36326 3.9194,-0.27224 6.967,-1.47681 39.699,-15.69079 15.6359,-6.78992 26.5542,-11.20991 27.3264,-11.0623 0.7073,0.13516 1.6107,0.7657 2.0074,1.4011 0.6109,0.97833 0.9225,41.45929 0.7107,92.37491 0,1.11196 -1.9604,3.5406 -2.8512,3.5406 -0.9044,0 -56.0707,23.95944 -57.0635,24.78341 -0.4691,0.38937 -0.879,0.59734 -0.9107,0.46218 -0.032,-0.13515 -1.4074,0.0508 -3.0567,0.41303 -4.3143,0.94771 -7.8502,1.14085 -12.2959,0.67166 z m -40.1615,-20.38419 c -7.6036,-1.27562 -13.9783,-4.23124 -16.0693,-7.45038 -0.7423,-1.1427 -1.3495,-2.47039 -1.3495,-2.95036 0,-0.47999 -0.2831,-1.04763 -0.629,-1.2614 -0.4369,-0.27001 -0.4326,-0.62522 0.015,-1.16331 0.4455,-0.53679 0.6297,-14.50819 0.5998,-45.50458 -0.037,-38.41905 0.083,-44.9727 0.8465,-46.45019 0.9017,-1.74381 4.4741,-4.45456 6.6661,-5.05836 1.7308,-0.47678 55.6611,-23.89933 56.4012,-24.49571 0.3412,-0.27486 1.1508,-0.4008 1.7994,-0.27983 0.6485,0.12095 1.4666,0.24059 1.8178,0.26585 1.4108,0.10131 2.3607,3.93504 2.1872,8.82752 l -0.1731,4.88298 -2.9729,-1.43415 c -1.635,-0.78878 -3.6602,-1.43414 -4.5004,-1.43414 -1.7064,0 -51.0866,21.18021 -52.3879,22.47038 -0.7023,0.69605 -0.4033,1.01397 1.9691,2.09474 3.896,1.77482 8.5466,2.52465 13.679,2.20553 3.6544,-0.22722 5.7529,-0.85942 12.7701,-3.84726 13.5499,-5.76928 48.3919,-20.89082 50.7695,-22.03408 2.8153,-1.35373 5.0073,-0.81818 6.2157,1.51856 0.6123,1.18402 0.6964,1.79069 0.2486,1.79069 -0.6782,0 -44.8595,19.00601 -53.3351,22.94372 -5.1332,2.38488 -8.2484,5.07968 -10.2833,8.89562 l -1.4126,2.64892 -0.1752,42.26084 c -0.096,23.24345 -0.2314,42.31564 -0.3,42.38264 -0.069,0.067 -1.4866,0.36867 -3.1511,0.67038 -2.2408,0.40617 -4.6406,0.27778 -9.2445,-0.49462 z"
       id="path3993"
       inkscape:connector-curvature="0" />
    <rect
       style="color:#000000;fill:none;stroke:#333333;stroke-width:3;stroke-linecap:round;stroke-linejoin:bevel;stroke-miterlimit:4;stroke-opacity:1;stroke-dasharray:none;stroke-dashoffset:0;marker:none;visibility:visible;display:inline;overflow:visible;enable-background:accumulate"
       id="rect4533"
       width="226.21222"
       height="226.21222"
       x="836.89392"
       y="523.67914"
       ry="11.499999" />
    <text
       xml:space="preserve"
       style="font-size:40px;font-style:normal;font-variant:normal;font-weight:normal;font-stretch:normal;line-height:125%;letter-spacing:0px;word-spacing:0px;fill:#333333;fill-opacity:1;stroke:none;font-family:Montserrat Alternates;-inkscape-font-specification:Montserrat Alternates"
       x="1121.1356"
       y="486.68787"
       id="text4535"
       sodipodi:linespacing="125%"><tspan
         sodipodi:role="line"
         id="tspan4537"
         x="1121.1356"
         y="486.68787"
         style="font-size:28px">Publications</tspan></text>
    <rect
       ry="11.499999"
       y="274.57547"
       x="1097.3939"
       height="226.21222"
       width="226.21222"
       id="rect4539"
       style="color:#000000;fill:none;stroke:#333333;stroke-width:3;stroke-linecap:round;stroke-linejoin:bevel;stroke-miterlimit:4;stroke-opacity:1;stroke-dasharray:none;stroke-dashoffset:0;marker:none;visibility:visible;display:inline;overflow:visible;enable-background:accumulate" />
    <rect
       ry="11.499999"
       y="523.67914"
       x="1097.3939"
       height="226.21222"
       width="226.21222"
       id="rect4541"
       style="color:#000000;fill:none;stroke:#333333;stroke-width:3;stroke-linecap:round;stroke-linejoin:bevel;stroke-miterlimit:4;stroke-opacity:1;stroke-dasharray:none;stroke-dashoffset:0;marker:none;visibility:visible;display:inline;overflow:visible;enable-background:accumulate" />
    <text
       xml:space="preserve"
       style="font-size:28px;font-style:normal;font-variant:normal;font-weight:normal;font-stretch:normal;line-height:125%;letter-spacing:0px;word-spacing:0px;fill:#000000;fill-opacity:1;stroke:none;font-family:Montserrat;-inkscape-font-specification:Montserrat"
       x="860"
       y="734.36218"
       id="text4543"
       sodipodi:linespacing="125%"><tspan
         sodipodi:role="line"
         id="tspan4545"
         x="860"
         y="734.36218"
         style="font-style:normal;font-variant:normal;font-weight:normal;font-stretch:normal;font-family:Montserrat Alternates;-inkscape-font-specification:Montserrat Alternates">Illustrations</tspan></text>
    <text
       sodipodi:linespacing="125%"
       id="text4547"
       y="734.36218"
       x="1114"
       style="font-size:28px;font-style:normal;font-variant:normal;font-weight:normal;font-stretch:normal;line-height:125%;letter-spacing:0px;word-spacing:0px;fill:#000000;fill-opacity:1;stroke:none;font-family:Montserrat;-inkscape-font-specification:Montserrat"
       xml:space="preserve"><tspan
         style="font-style:normal;font-variant:normal;font-weight:normal;font-stretch:normal;font-family:Montserrat Alternates;-inkscape-font-specification:Montserrat Alternates"
         y="734.36218"
         x="1114"
         id="tspan4549"
         sodipodi:role="line">Photography</tspan></text>
    <path
       style="fill:#333333;fill-opacity:1"
       d="m 195.75969,-157.89841 c -21.5927,-21.59334 -39.2596,-39.47651 -39.2596,-39.74038 0,-0.62723 78.3738,-78.99903 79.001,-78.99903 0.6272,0 78.999,78.37373 78.999,79.00098 0,0.62724 -78.3738,78.99904 -79.001,78.99904 -0.2638,0 -18.1465,-17.66728 -39.7394,-39.26061 z m 73.5627,-5.91595 c 18.339,-18.3384 33.3437,-33.55844 33.3437,-33.82231 0,-0.62723 -66.5376,-67.16715 -67.1648,-67.16715 -0.6273,0 -67.1672,66.53765 -67.1672,67.16486 0,0.62723 66.5376,67.16715 67.1648,67.16715 0.264,0 15.4845,-15.00415 33.8235,-33.34255 z m -45.7578,7.16963 c -9.9722,-9.98804 -10.7733,-10.87175 -10.5077,-11.59002 0.1812,-0.48982 0.6884,-0.89706 1.3705,-1.10051 0.5956,-0.17762 1.3972,-0.50145 1.7814,-0.71963 0.3843,-0.21818 1.1867,-0.39668 1.7833,-0.39668 0.7435,0 1.3211,-0.25154 1.836,-0.7996 0.498,-0.53015 1.0963,-0.79959 1.7757,-0.79959 0.5634,0 1.2036,-0.21589 1.4226,-0.47976 0.219,-0.26387 0.9203,-0.49071 1.5584,-0.5041 1.6933,-0.0355 3.3804,-0.72921 3.5101,-1.44325 0.061,-0.33625 0.2151,-0.72227 0.3424,-0.85783 0.3516,-0.37438 5.2544,0.4167 5.6513,0.91186 0.2281,0.28454 0.2622,1.06327 0.099,2.26461 -0.1366,1.00702 -0.1611,1.97217 -0.054,2.14477 0.4129,0.66817 0.3301,4.52126 -0.1108,5.15126 -0.635,0.90748 -0.5437,1.94152 0.2163,2.44853 0.4848,0.32338 0.6997,0.89374 0.8175,2.16835 0.088,0.95124 0.3815,2.15859 0.6526,2.683 0.3829,0.74033 0.4147,1.12563 0.1421,1.72376 -0.193,0.42367 -0.3509,1.49032 -0.3509,2.37033 0,0.88002 -0.2111,2.00818 -0.4691,2.50702 -0.3226,0.62388 -0.4101,1.40444 -0.2803,2.50057 0.4063,3.4302 0.415,3.43658 -11.1861,-8.18309 z m 13.3554,10.05763 c -0.1821,-0.72576 -0.068,-3.62767 0.3221,-8.19241 0.3108,-3.63399 0.1991,-5.83561 -0.3372,-6.65415 -0.5176,-0.78999 -0.4114,-2.44875 0.234,-3.65474 0.3879,-0.72467 1.436,-0.72954 1.8395,-0.009 0.1715,0.30637 0.3831,0.48579 0.4701,0.3987 0.2106,-0.21064 -0.2802,-3.66519 -0.7493,-5.27357 -0.786,-2.69437 -0.7756,-2.99056 0.1181,-3.39776 0.4556,-0.2076 0.9129,-0.64362 1.0161,-0.96893 0.3242,-1.02159 1.2919,-1.3151 2.4172,-0.73321 0.7183,0.37146 1.0967,0.41914 1.3462,0.16963 0.1909,-0.19089 0.5989,-0.34706 0.9067,-0.34706 0.7064,0 3.4598,1.83951 3.7033,2.47407 0.1004,0.26158 0.6287,0.66459 1.1742,0.89558 0.8954,0.37924 1.0625,0.3538 1.723,-0.26232 l 0.7314,-0.68229 1.4589,0.78647 c 0.8023,0.43255 1.7952,1.18226 2.2064,1.66602 0.4112,0.48376 0.9256,0.87955 1.1432,0.87955 0.8134,0 2.8278,1.13725 2.8358,1.60096 0.01,0.56747 -21.4014,22.06705 -21.9763,22.06705 -0.2155,0 -0.4781,-0.34337 -0.5834,-0.76306 z m -1.1932,-20.54599 c -0.3294,-0.32943 -0.2687,-2.43707 0.086,-2.99865 0.4891,-0.77328 1.3607,0.34898 1.4071,1.81157 0.032,1.00696 -0.078,1.24365 -0.614,1.32035 -0.359,0.0514 -0.7548,-0.009 -0.8795,-0.13327 z m -30.8512,-8.19565 -6.1569,-6.16325 0,-4.13388 c 0,-6.35769 0.6071,-7.22292 6.8495,-9.76233 1.7442,-0.70955 3.504,-1.2901 3.9107,-1.2901 2.3094,0 6.6408,2.64951 7.7648,4.74966 0.2024,0.37818 0.5428,0.68839 0.7565,0.68937 0.2137,8.2e-4 0.9272,0.15137 1.5854,0.33419 0.8546,0.23731 1.2523,0.55295 1.3904,1.1034 0.2263,0.90106 2.0573,2.39868 2.9328,2.39868 0.7178,0 1.5079,0.83928 2.925,3.10694 0.6572,1.05166 0.945,1.81959 0.7791,2.07895 -0.1446,0.2262 -0.2643,0.98699 -0.2658,1.69063 0,1.20531 -0.058,1.27996 -0.9624,1.28984 -0.9215,0.01 -0.9662,0.0772 -1.13,1.69737 -0.096,0.94644 -0.3689,1.80948 -0.6224,1.96618 -0.5795,0.35815 -1.5034,-0.12869 -1.7563,-0.92552 -0.1066,-0.33576 -0.3936,-0.68718 -0.6379,-0.78092 -0.4546,-0.17442 -1.1924,0.46529 -1.1041,0.95725 0.1704,0.94886 -0.1217,1.39931 -1.0656,1.64391 -0.6478,0.16784 -1.0817,0.50251 -1.1525,0.8887 -0.1774,0.96866 -1.0282,1.73891 -1.9208,1.73891 -0.4766,0 -1.2362,0.4085 -1.8304,0.98438 -0.5585,0.5414 -1.5009,1.10053 -2.0942,1.24249 -0.5931,0.14196 -1.2943,0.34817 -1.5583,0.45826 -0.3319,0.1385 -2.376,-1.69804 -6.6366,-5.96311 z m 55.0921,5.197 c -0.3184,-0.35182 -0.7682,-0.63968 -0.9995,-0.63968 -0.2313,0 -0.7398,-0.43177 -1.13,-0.95951 -0.457,-0.61807 -0.9921,-0.95951 -1.5036,-0.95951 -0.4369,0 -1.0215,-0.19911 -1.2992,-0.44247 -0.5542,-0.48567 -3.7471,-1.47656 -4.7578,-1.47656 -0.8613,0 -1.0832,-0.73336 -0.4817,-1.59212 0.4471,-0.63825 0.4459,-0.75468 -0.012,-1.21287 -0.4208,-0.42077 -0.6506,-0.44129 -1.3541,-0.12082 -1.2359,0.56315 -1.7863,0.002 -1.5355,-1.56773 l 0.1952,-1.22047 -1.2369,-0.1015 -1.2368,-0.1015 0.1071,-1.43927 c 0.098,-1.32292 0.321,-1.65367 2.7528,-4.09148 2.2128,-2.21835 2.9003,-2.7154 4.2024,-3.03847 1.0222,-0.25363 1.6736,-0.62161 1.8974,-1.07177 0.6005,-1.20858 1.2348,-1.78725 2.6008,-2.37278 0.7375,-0.31614 1.4279,-0.86583 1.543,-1.22853 0.138,-0.43475 0.6608,-0.77123 1.5484,-0.99654 0.737,-0.18708 2.0596,-0.70501 2.9392,-1.15094 l 1.5992,-0.81079 3.129,1.13384 c 4.9,1.77555 5.3047,2.0267 6.6701,4.13925 l 1.2353,1.91127 0,3.38021 0,3.38021 -6.6451,6.6451 c -3.6548,3.65481 -6.8709,6.64511 -7.1468,6.64511 -0.2759,0 -0.7622,-0.28786 -1.0806,-0.63968 z m -26.3067,-6.28506 c -0.5327,-0.2199 -0.5092,-1.2219 0.039,-1.67725 0.7055,-0.58554 1.5285,-0.0722 1.4172,0.88404 -0.095,0.81758 -0.6566,1.12336 -1.4566,0.79321 z m -6.6538,-0.77924 c -0.2791,-0.45162 0.3373,-1.06807 0.7889,-0.78896 0.1913,0.1182 0.3477,0.4223 0.3477,0.67578 0,0.53849 -0.8232,0.62045 -1.1366,0.11318 z m 15.0441,0.0191 c -0.3811,-0.61659 0.9416,-2.39 1.7825,-2.39 1.1967,0 1.2146,1.20133 0.03,2.04455 -1.051,0.74837 -1.5098,0.83579 -1.8129,0.34545 z m -14.039,-6.80914 c -1.109,-0.89598 -0.8864,-1.49986 0.5502,-1.49296 1.3739,0.007 1.8977,0.39486 1.7682,1.31063 -0.1467,1.03784 -1.1608,1.1176 -2.3184,0.18233 z m 12.5092,-1.99678 c -0.6881,-0.64233 -0.8132,-0.93538 -0.5401,-1.26449 0.6019,-0.72526 2.715,0.17439 2.715,1.15592 0,1.08667 -1.07,1.14008 -2.1749,0.10857 z m -13.809,-1.93762 c -0.5876,-0.58755 -0.5192,-1.05114 0.2242,-1.52004 0.3634,-0.22921 0.6622,-0.20101 1.0204,0.0963 0.6825,0.56648 0.6383,1.20859 -0.1109,1.60955 -0.4683,0.25062 -0.7422,0.20574 -1.1337,-0.18578 z m 13.8401,-1.16162 c -0.5176,-0.40813 -0.771,-1.40197 -1.0809,-4.23786 -0.096,-0.87955 -0.4129,-2.16031 -0.7039,-2.84613 -0.5167,-1.21754 -0.5124,-1.25805 0.1805,-1.71816 0.8948,-0.59414 0.9038,-1.5631 0.037,-4.00458 -0.4291,-1.20864 -0.602,-2.24837 -0.4775,-2.87098 0.189,-0.94499 -0.1744,-2.59606 -0.8612,-3.91237 -0.1835,-0.35182 -0.4991,-1.28735 -0.7012,-2.07895 -0.2159,-0.84557 -0.5524,-1.43928 -0.8154,-1.43928 -0.3085,0 -0.467,0.44792 -0.5092,1.43928 -0.089,2.09148 -0.5847,4.68005 -0.9902,5.17146 -0.1931,0.23414 -0.4003,1.07338 -0.4605,1.86498 -0.099,1.2986 -0.037,1.44951 0.63,1.54403 0.8808,0.12485 1.2365,0.848 0.7221,1.46791 -0.211,0.25432 -0.2791,0.80492 -0.1587,1.28463 0.1537,0.61235 -0.01,1.16158 -0.5938,2.02957 -0.5757,0.8516 -0.8676,1.82679 -1.026,3.42892 -0.2132,2.15436 -0.8836,3.77612 -1.9148,4.63192 -0.3776,0.31344 -0.7289,0.16986 -1.8681,-0.76363 -1.5049,-1.23313 -2.542,-1.42111 -4.3544,-0.78929 -0.8953,0.3121 -1.1582,0.26843 -1.9621,-0.326 -0.5107,-0.37751 -1.2543,-0.82719 -1.6527,-0.99929 -0.3983,-0.1721 -0.9401,-0.43394 -1.2039,-0.58185 -0.2639,-0.14792 -0.8632,-0.4721 -1.3318,-0.7204 -0.4686,-0.2483 -1.62,-0.97309 -2.5587,-1.61065 -0.9387,-0.63755 -2.1385,-1.35912 -2.6662,-1.60349 -0.5915,-0.27388 -0.9595,-0.68622 -0.9595,-1.07491 0,-0.52516 0.9625,-0.9874 5.757,-2.76476 3.1664,-1.17379 5.9235,-2.28444 6.1269,-2.46811 0.2034,-0.18367 0.4715,-1.55464 0.5958,-3.0466 l 0.2259,-2.71265 -1.4569,-2.34021 c -3.2992,-5.29924 -4.9915,-10.93735 -5.2494,-17.48815 -0.1101,-2.79758 -0.033,-4.8963 0.224,-6.07693 1.435,-6.59786 6.9871,-12.31177 13.4119,-13.80261 6.8415,-1.58751 14.2964,2.82616 18.1064,10.71979 2.2973,4.75964 2.4717,6.85855 1.1163,13.4332 -1.2148,5.89262 -3.3805,11.51555 -5.6495,14.66844 -1.2607,1.75189 -1.6815,3.79835 -1.2518,6.08877 0.2075,1.1061 0.2424,1.12686 3.6366,2.16542 7.0841,2.16763 10.1431,3.30074 10.215,3.78385 0.039,0.26386 -0.4308,1.04609 -1.0445,1.73827 -0.8679,0.97877 -1.4164,1.29871 -2.4675,1.43928 -1.1201,0.14979 -1.4847,0.38662 -2.1292,1.38269 -1.1747,1.81584 -3.3922,2.14058 -6.992,1.02392 -0.6504,-0.20177 -0.7202,-0.12717 -0.657,0.70238 0.1013,1.32877 -0.2444,1.71942 -1.3292,1.50244 -0.6413,-0.12824 -1.2701,0.024 -2.0244,0.49022 -1.2871,0.79543 -1.2348,0.78776 -1.8832,0.27647 z m -6.2765,-0.77055 c 0.062,-0.32382 0.3273,-0.58876 0.5887,-0.58876 0.6856,0 0.5866,0.92934 -0.1134,1.06414 -0.4274,0.0823 -0.5577,-0.048 -0.4753,-0.47538 z m 1.2856,-3.67462 c 0.1183,-1.59608 0.9197,-2.3067 1.7101,-1.51633 0.4593,0.45929 0.4545,0.60894 -0.053,1.67373 -0.3486,0.73098 -0.7821,1.16934 -1.1565,1.16934 -0.5048,0 -0.5834,-0.20837 -0.5005,-1.32674 z"
       id="path4637"
       inkscape:connector-curvature="0" />
    <path
       inkscape:connector-curvature="0"
       id="path4741"
       d="m 916.17879,453.00633 c -4.91076,-1.55541 -8.34096,-4.76401 -9.80488,-9.17146 -0.9991,-3.00799 -0.98318,-3.27058 0.51081,-8.42601 0.84812,-2.9267 6.63885,-17.21648 12.86828,-31.75507 12.03415,-28.08598 13.68629,-32.80011 14.30662,-40.82149 0.33291,-4.30482 0.19704,-5.5041 -0.9062,-7.99815 -1.44217,-3.26026 -3.92044,-5.12388 -7.59524,-5.7115 -5.02806,-0.80402 -7.20915,-6.5104 -3.65644,-9.56631 2.94002,-2.52889 5.38181,-2.76958 28.0983,-2.76958 22.71649,0 25.15829,0.24069 28.0983,2.76958 3.55271,3.05591 1.37162,8.76229 -3.65643,9.56631 -3.67481,0.58762 -6.15307,2.45124 -7.59524,5.7115 -1.10324,2.49405 -1.23912,3.69333 -0.90621,7.99815 0.62033,8.02138 2.27248,12.73551 14.30662,40.82149 6.22944,14.53859 12.02015,28.82837 12.86828,31.75507 1.49398,5.15543 1.50988,5.41802 0.51082,8.42601 -1.49838,4.51111 -4.87749,7.61334 -10.02461,9.20312 -3.98502,1.23085 -5.63055,1.29207 -33.8249,1.25848 -27.81916,-0.0331 -29.87899,-0.11224 -33.59788,-1.29014 z m 44.35063,-126.33487 c -1.6788,-0.97781 -3.06774,-4.11948 -2.61635,-5.91796 0.48197,-1.92031 3.66489,-4.71823 5.36745,-4.71823 3.6057,0 6.70289,3.77626 5.85804,7.14243 -0.84142,3.35247 -5.56239,5.26833 -8.60914,3.49376 z m -23.73041,-5.92153 c -0.97037,-1.16924 0.15939,-2.82879 1.92574,-2.82879 1.465,0 2.03285,0.9354 1.52989,2.5201 -0.46887,1.47729 -2.34657,1.64502 -3.45563,0.30869 z m 9.59038,-15.80645 c -3.17878,-1.56708 -4.77718,-4.67152 -4.40414,-8.55381 0.25877,-2.69309 0.67837,-3.5591 2.55989,-5.28338 1.23771,-1.13428 2.97325,-2.24376 3.85677,-2.4655 4.12143,-1.03442 9.07997,1.71092 10.41913,5.76863 2.46065,7.45582 -5.31339,14.04323 -12.43165,10.53406 z"
       style="fill:#333333;fill-opacity:1" />
    <path
       inkscape:connector-curvature="0"
       style="color:#000000;fill:#333333;fill-opacity:1;fill-rule:nonzero;stroke:none;stroke-width:2.5;marker:none;visibility:visible;display:inline;overflow:visible;enable-background:accumulate"
       d="m 1157.127,564.42468 c -2.7651,0 -5.1434,1.63491 -6.2533,3.96841 l -2.2447,0 c -8.1723,0 -14.7513,6.57906 -14.7513,14.75125 l 0,79.2479 c 0,8.1722 6.579,14.75126 14.7513,14.75126 l 123.7422,0 c 8.1722,0 14.7512,-6.57906 14.7512,-14.75126 l 0,-79.2479 c 0,-8.17219 -6.579,-14.75125 -14.7512,-14.75125 l -88.748,0 c -1.1118,-2.32884 -3.4516,-3.96841 -6.2133,-3.96841 l -20.2829,0 z m 38.8022,8.89885 29.1818,0 c 1.2323,0 2.2048,0.97242 2.2048,2.20467 l 0,15.83355 c 0,1.23226 -0.9725,2.20467 -2.2048,2.20467 l -29.1818,0 c -1.2322,0 -2.2046,-0.97241 -2.2046,-2.20467 l 0,-15.83355 c 0,-1.23225 0.9724,-2.20467 2.2046,-2.20467 z m 14.5509,29.62276 c 16.3791,0 29.6628,13.28365 29.6628,29.66285 0,16.3792 -13.2837,29.66285 -29.6628,29.66285 -16.3793,0 -29.6629,-13.28365 -29.6629,-29.66285 0,-16.3792 13.2836,-29.66285 29.6629,-29.66285 z m 0,3.96841 c -14.4683,0 -26.1755,11.49913 -26.1755,25.69444 0,14.1953 11.7072,25.69444 26.1755,25.69444 14.4683,0 26.2155,-11.49914 26.2155,-25.69444 0,-14.19531 -11.7472,-25.69444 -26.2155,-25.69444 z"
       id="rect4783" />
  </g>
</svg>
