<?xml version="1.0"?><svg xmlns="http://www.w3.org/2000/svg" xmlns:xlink="http://www.w3.org/1999/xlink" viewBox="155.07 160.56 28.12 25.37" preserveAspectRatio="xMidYMid" width="100%" height="100%"><clipPath id="15570"><rect x="0.225" y="0.225" width="538.06" height="784.66" /></clipPath><g id="drawing"><rect x="155.07" y="160.56" width="100%" height="100%" fill="rgb(255, 255, 255)" /><g id="page" clip-path="url(#15570)"><g id="Spline"><path d="M160.78 162.13 C162.15 161 161.75 161.04 165.01 164.3 C168.27 167.56 168.51 168.17 168.59 168.77 C168.67 169.38 168.79 171.8 168.79 173.48 C168.79 175.17 168.79 179.74 168.77 181.43 C168.73 184.57 169.03 184.93 167.26 184.93 C165.49 184.93 165.89 184.73 165.81 181.43 C165.73 177.93 165.81 173.23 165.81 171.47 C165.81 169.71 166.21 170.1 163.16 166.92 C160.1 163.74 159.13 163.49 160.78 162.13 Z" stroke="rgb(208, 171, 199)" stroke-width="0.45" fill-rule="evenodd" stroke-linejoin="bevel" fill="rgb(208, 171, 199)" shape-rendering="geometricPrecision" /></g><g id="Spline"><path d="M157.64 164.93 C158.98 163.84 158.81 163.86 162.23 167.34 C165.32 170.49 165.33 170.39 164.79 171.05 C164.5 171.39 162.98 170.57 160.8 169.48 C158.87 168.51 155.07 167.06 157.64 164.93 Z" stroke="rgb(171, 142, 163)" stroke-width="0.45" fill-rule="evenodd" stroke-linejoin="bevel" fill="rgb(171, 142, 163)" shape-rendering="geometricPrecision" /></g><g id="Spline"><path d="M180.61 164.99 C179.28 163.9 179.45 163.92 176.03 167.4 C172.94 170.55 172.93 170.45 173.47 171.11 C173.75 171.45 175.28 170.63 177.46 169.54 C179.39 168.57 183.19 167.12 180.61 164.99 Z" stroke="rgb(171, 142, 163)" stroke-width="0.45" fill-rule="evenodd" stroke-linejoin="bevel" fill="rgb(171, 142, 163)" shape-rendering="geometricPrecision" /></g><g id="Spline"><path d="M177.58 162.13 C176.21 161 176.62 161.04 173.36 164.3 C170.1 167.56 169.85 168.17 169.77 168.77 C169.7 169.38 169.57 171.8 169.57 173.48 C169.57 175.17 169.57 179.74 169.59 181.43 C169.63 184.57 169.33 184.93 171.1 184.93 C172.87 184.93 172.48 184.73 172.55 181.43 C172.63 177.93 172.55 173.23 172.55 171.47 C172.55 169.71 172.15 170.1 175.21 166.92 C178.27 163.74 179.24 163.49 177.58 162.13 Z" stroke="rgb(208, 171, 199)" stroke-width="0.45" fill-rule="evenodd" stroke-linejoin="bevel" fill="rgb(208, 171, 199)" shape-rendering="geometricPrecision" /></g><g id="Spline"><path d="M160.78 162.24 C162.15 161.11 161.75 161.15 165.01 164.41 C168.27 167.67 168.51 168.27 168.59 168.88 C168.67 169.48 168.79 171.9 168.79 173.59 C168.79 175.27 168.79 179.84 168.77 181.53 C168.73 184.67 169.03 185.04 167.26 185.04 C165.49 185.04 165.89 184.84 165.81 181.53 C165.73 178.03 165.81 173.33 165.81 171.57 C165.81 169.81 166.21 170.2 163.16 167.02 C160.1 163.85 159.13 163.6 160.78 162.24 Z" stroke="rgb(152, 125, 145)" stroke-width="0.45" fill-rule="evenodd" stroke-linejoin="bevel" fill="none" shape-rendering="geometricPrecision" /></g><g id="Spline"><path d="M157.64 165.04 C158.98 163.94 158.81 163.97 162.23 167.45 C165.32 170.59 165.33 170.49 164.79 171.15 C164.5 171.49 162.98 170.67 160.8 169.58 C158.87 168.61 155.07 167.17 157.64 165.04 Z" stroke="rgb(152, 125, 145)" stroke-width="0.45" fill-rule="evenodd" stroke-linejoin="bevel" fill="none" shape-rendering="geometricPrecision" /></g><g id="Spline"><path d="M180.61 165.1 C179.28 164 179.45 164.03 176.03 167.51 C172.94 170.65 172.93 170.55 173.47 171.21 C173.75 171.55 175.28 170.73 177.46 169.64 C179.39 168.67 183.19 167.23 180.61 165.1 Z" stroke="rgb(152, 125, 145)" stroke-width="0.45" fill-rule="evenodd" stroke-linejoin="bevel" fill="none" shape-rendering="geometricPrecision" /></g><g id="Spline"><path d="M177.58 162.24 C176.21 161.11 176.62 161.15 173.36 164.41 C170.1 167.67 169.85 168.27 169.77 168.88 C169.7 169.48 169.57 171.9 169.57 173.59 C169.57 175.27 169.57 179.84 169.59 181.53 C169.63 184.67 169.33 185.04 171.1 185.04 C172.87 185.04 172.48 184.84 172.55 181.53 C172.63 178.03 172.55 173.33 172.55 171.57 C172.55 169.81 172.15 170.2 175.21 167.02 C178.27 163.85 179.24 163.6 177.58 162.24 Z" stroke="rgb(152, 125, 145)" stroke-width="0.45" fill-rule="evenodd" stroke-linejoin="bevel" fill="none" shape-rendering="geometricPrecision" /></g></g></g></svg>