<?xml version="1.0" encoding="utf-8"?>
<!-- Generator: Adobe Illustrator 16.0.4, SVG Export Plug-In . SVG Version: 6.00 Build 0)  -->
<!DOCTYPE svg PUBLIC "-//W3C//DTD SVG 1.1//EN" "http://www.w3.org/Graphics/SVG/1.1/DTD/svg11.dtd">
<svg version="1.1" id="Layer_1" xmlns="http://www.w3.org/2000/svg" xmlns:xlink="http://www.w3.org/1999/xlink" x="0px" y="0px"
	 width="72px" height="80px" viewBox="0 0 72 80" enable-background="new 0 0 72 80" xml:space="preserve">
<g>
	<defs>
		<rect id="SVGID_1_" width="72" height="80"/>
	</defs>
	<clipPath id="SVGID_2_">
		<use xlink:href="#SVGID_1_"  overflow="visible"/>
	</clipPath>
	<g clip-path="url(#SVGID_2_)">
		<defs>
			<rect id="SVGID_3_" width="72" height="80"/>
		</defs>
		<clipPath id="SVGID_4_">
			<use xlink:href="#SVGID_3_"  overflow="visible"/>
		</clipPath>
		<polygon clip-path="url(#SVGID_4_)" fill="#010101" points="7.3,56.801 5.8,57.6 5.8,22.801 7.3,23.6 		"/>
		<rect x="11.9" y="26.699" clip-path="url(#SVGID_4_)" fill="#010101" width="1.5" height="27"/>
		<polygon clip-path="url(#SVGID_4_)" fill="#010101" points="36,73.301 36,75.1 5.8,57.6 7.3,56.801 		"/>
		<polygon clip-path="url(#SVGID_4_)" fill="#010101" points="64.699,56.801 66.199,57.6 36,75.1 36,73.301 		"/>
		<polygon clip-path="url(#SVGID_4_)" fill="#010101" points="58.9,53 59.699,54.301 36.4,67.801 35.6,66.5 		"/>
		<polygon clip-path="url(#SVGID_4_)" fill="#010101" points="64.699,23.6 66.199,22.801 66.199,57.6 64.699,56.801 		"/>
		<polygon clip-path="url(#SVGID_4_)" fill="#010101" points="36,7.1 36,5.301 66.199,22.801 64.699,23.6 		"/>
		<polygon clip-path="url(#SVGID_4_)" fill="#010101" points="35.6,13.9 36.4,12.6 59.699,26.1 58.9,27.4 		"/>
		<polygon clip-path="url(#SVGID_4_)" fill="#010101" points="7.3,23.6 5.8,22.801 36,5.301 36,7.1 		"/>
	</g>
</g>
</svg>
