<?xml version="1.0" encoding="UTF-8" standalone="no"?>
<!-- Created with Inkscape (http://www.inkscape.org/) -->

<svg
   xmlns:dc="http://purl.org/dc/elements/1.1/"
   xmlns:cc="http://creativecommons.org/ns#"
   xmlns:rdf="http://www.w3.org/1999/02/22-rdf-syntax-ns#"
   xmlns:svg="http://www.w3.org/2000/svg"
   xmlns="http://www.w3.org/2000/svg"
   xmlns:sodipodi="http://sodipodi.sourceforge.net/DTD/sodipodi-0.dtd"
   xmlns:inkscape="http://www.inkscape.org/namespaces/inkscape"
   width="108"
   height="152"
   id="svg2"
   version="1.1"
   inkscape:version="0.48.3.1 r9886"
   sodipodi:docname="blog.svg">
  <defs
     id="defs4" />
  <sodipodi:namedview
     id="base"
     pagecolor="#ffffff"
     bordercolor="#666666"
     borderopacity="1.0"
     inkscape:pageopacity="0.0"
     inkscape:pageshadow="2"
     inkscape:zoom="2.8"
     inkscape:cx="11.686171"
     inkscape:cy="86.640267"
     inkscape:document-units="px"
     inkscape:current-layer="layer1"
     showgrid="false"
     inkscape:window-width="1920"
     inkscape:window-height="1025"
     inkscape:window-x="-2"
     inkscape:window-y="-3"
     inkscape:window-maximized="1"
     fit-margin-top="1"
     fit-margin-left="1"
     fit-margin-right="1"
     fit-margin-bottom="1" />
  <metadata
     id="metadata7">
    <rdf:RDF>
      <cc:Work
         rdf:about="">
        <dc:format>image/svg+xml</dc:format>
        <dc:type
           rdf:resource="http://purl.org/dc/dcmitype/StillImage" />
        <dc:title></dc:title>
      </cc:Work>
    </rdf:RDF>
  </metadata>
  <g
     inkscape:label="Layer 1"
     inkscape:groupmode="layer"
     id="layer1"
     transform="translate(-21.21875,-896.83093)">
    <path
       style="color:#000000;fill:#333333;fill-opacity:1;fill-rule:nonzero;stroke:none;stroke-width:1;marker:none;visibility:visible;display:inline;overflow:visible;enable-background:accumulate"
       d="m 32.21875,5.46875 c -5.54,0 -10,4.46 -10,10 l 0,130 c 0,5.54 4.46,10 10,10 l 86,0 c 5.54,0 10,-4.46 10,-10 l 0,-130 c 0,-5.54 -4.46,-10 -10,-10 l -86,0 z m 6.625,10.71875 77.8125,0 c 1.108,0 2,0.770657 2,1.75 0,0.979343 -0.892,1.78125 -2,1.78125 l -77.8125,0 c -1.108,0 -2,-0.801907 -2,-1.78125 0,-0.979343 0.892,-1.75 2,-1.75 z m -9.15625,2.40625 c 0.836838,0 1.5,0.663162 1.5,1.5 0,0.836838 -0.663162,1.5 -1.5,1.5 -0.836838,0 -1.53125,-0.663162 -1.53125,-1.5 0,-0.836838 0.694412,-1.5 1.53125,-1.5 z m 9.15625,9.0625 77.8125,0 c 1.108,0 2,0.801907 2,1.78125 0,0.979343 -0.892,1.75 -2,1.75 l -77.8125,0 c -1.108,0 -2,-0.770657 -2,-1.75 0,-0.979343 0.892,-1.78125 2,-1.78125 z m -9.15625,10.9375 c 0.836838,0 1.5,0.663162 1.5,1.5 0,0.836838 -0.663162,1.5 -1.5,1.5 -0.836838,0 -1.53125,-0.663162 -1.53125,-1.5 0,-0.836838 0.694412,-1.5 1.53125,-1.5 z m 9.15625,0.53125 13.59375,0 c 1.108,0 2,0.801907 2,1.78125 0,0.979343 -0.892,1.75 -2,1.75 l -13.59375,0 c -1.108,0 -2,-0.770657 -2,-1.75 0,-0.979343 0.892,-1.78125 2,-1.78125 z m 0,22.96875 35.96875,0 c 1.108,0 2,0.801907 2,1.78125 0,0.979343 -0.892,1.75 -2,1.75 l -35.96875,0 c -1.108,0 -2,-0.770657 -2,-1.75 0,-0.979343 0.892,-1.78125 2,-1.78125 z M 29.6875,68.9375 c 0.836838,0 1.5,0.694412 1.5,1.53125 0,0.836838 -0.663162,1.5 -1.5,1.5 -0.836838,0 -1.53125,-0.663162 -1.53125,-1.5 0,-0.836838 0.694412,-1.53125 1.53125,-1.53125 z m 9.15625,4.625 77.8125,0 c 1.108,0 2,0.801907 2,1.78125 0,0.979343 -0.892,1.75 -2,1.75 l -77.8125,0 c -1.108,0 -2,-0.770657 -2,-1.75 0,-0.979343 0.892,-1.78125 2,-1.78125 z m 0,11.5 77.8125,0 c 1.108,0 2,0.770657 2,1.75 0,0.979343 -0.892,1.78125 -2,1.78125 l -77.8125,0 c -1.108,0 -2,-0.801907 -2,-1.78125 0,-0.979343 0.892,-1.75 2,-1.75 z m -9.15625,3.875 c 0.836838,0 1.5,0.694412 1.5,1.53125 0,0.836838 -0.663162,1.5 -1.5,1.5 -0.836838,0 -1.53125,-0.663162 -1.53125,-1.5 0,-0.836838 0.694412,-1.53125 1.53125,-1.53125 z m 9.15625,7.59375 77.8125,0 c 1.108,0 2,0.770657 2,1.75 0,0.979343 -0.892,1.78125 -2,1.78125 l -77.8125,0 c -1.108,0 -2,-0.801907 -2,-1.78125 0,-0.979343 0.892,-1.75 2,-1.75 z m 0,11.46875 49.75,0 c 1.108,0 2,0.80191 2,1.78125 0,0.97934 -0.892,1.75 -2,1.75 l -49.75,0 c -1.108,0 -2,-0.77066 -2,-1.75 0,-0.97934 0.892,-1.78125 2,-1.78125 z m -9.15625,10.59375 c 0.836838,0 1.5,0.66316 1.5,1.5 0,0.83684 -0.663162,1.5 -1.5,1.5 -0.836838,0 -1.53125,-0.66316 -1.53125,-1.5 0,-0.83684 0.694412,-1.5 1.53125,-1.5 z m 21.53125,0.875 65.4375,0 c 1.108,0 2,0.80191 2,1.78125 0,0.97934 -0.892,1.78125 -2,1.78125 l -65.4375,0 c -1.108,0 -2,-0.80191 -2,-1.78125 0,-0.97934 0.892,-1.78125 2,-1.78125 z m -12.375,11.5 77.8125,0 c 1.108,0 2,0.77066 2,1.75 0,0.97934 -0.892,1.78125 -2,1.78125 l -77.8125,0 c -1.108,0 -2,-0.80191 -2,-1.78125 0,-0.97934 0.892,-1.75 2,-1.75 z m -9.15625,7.625 c 0.836838,0 1.5,0.66316 1.5,1.5 0,0.83684 -0.663162,1.5 -1.5,1.5 -0.836838,0 -1.53125,-0.66316 -1.53125,-1.5 0,-0.83684 0.694412,-1.5 1.53125,-1.5 z m 9.15625,3.84375 77.8125,0 c 1.108,0 2,0.80191 2,1.78125 0,0.97934 -0.892,1.75 -2,1.75 l -77.8125,0 c -1.108,0 -2,-0.77066 -2,-1.75 0,-0.97934 0.892,-1.78125 2,-1.78125 z"
       transform="translate(0,892.36218)"
       id="rect2995"
       inkscape:connector-curvature="0" />
  </g>
</svg>
