<?xml version="1.0" encoding="UTF-8" standalone="no"?>
<!-- Created with Inkscape (http://www.inkscape.org/) -->

<svg
   xmlns:dc="http://purl.org/dc/elements/1.1/"
   xmlns:cc="http://creativecommons.org/ns#"
   xmlns:rdf="http://www.w3.org/1999/02/22-rdf-syntax-ns#"
   xmlns:svg="http://www.w3.org/2000/svg"
   xmlns="http://www.w3.org/2000/svg"
   xmlns:sodipodi="http://sodipodi.sourceforge.net/DTD/sodipodi-0.dtd"
   xmlns:inkscape="http://www.inkscape.org/namespaces/inkscape"
   width="32.759811"
   height="32"
   id="svg4674"
   version="1.1"
   inkscape:version="0.48.3.1 r9886"
   sodipodi:docname="New document 12">
  <defs
     id="defs4676" />
  <sodipodi:namedview
     id="base"
     pagecolor="#ffffff"
     bordercolor="#666666"
     borderopacity="1.0"
     inkscape:pageopacity="0.0"
     inkscape:pageshadow="2"
     inkscape:zoom="7"
     inkscape:cx="16.951333"
     inkscape:cy="15.142858"
     inkscape:current-layer="layer1"
     showgrid="true"
     inkscape:grid-bbox="true"
     inkscape:document-units="px"
     fit-margin-top="1"
     fit-margin-left="1"
     fit-margin-right="1"
     fit-margin-bottom="1"
     inkscape:window-width="1920"
     inkscape:window-height="1025"
     inkscape:window-x="-2"
     inkscape:window-y="-3"
     inkscape:window-maximized="1" />
  <metadata
     id="metadata4679">
    <rdf:RDF>
      <cc:Work
         rdf:about="">
        <dc:format>image/svg+xml</dc:format>
        <dc:type
           rdf:resource="http://purl.org/dc/dcmitype/StillImage" />
        <dc:title></dc:title>
      </cc:Work>
    </rdf:RDF>
  </metadata>
  <g
     id="layer1"
     inkscape:label="Layer 1"
     inkscape:groupmode="layer"
     transform="translate(-7.0486667,-7.1428561)">
    <path
       inkscape:connector-curvature="0"
       id="path4417"
       style="fill:#ffffff;fill-opacity:1;fill-rule:evenodd;stroke:none"
       d="m 23.427697,8.1428561 c -8.49219,0 -15.3790303,6.8857099 -15.3790303,15.3802599 0,6.79488 4.4065503,12.55935 10.5184303,14.59328 0.76939,0.14102 1.05009,-0.3337 1.05009,-0.7412 0,-0.36512 -0.0133,-1.33261 -0.0207,-2.61598 -4.27862,0.92935 -5.18104,-2.06167 -5.18104,-2.06167 -0.69924,-1.77661 -1.7076,-2.24973 -1.7076,-2.24973 -1.39631,-0.95416 0.10546,-0.93499 0.10546,-0.93499 1.5435,0.10886 2.35595,1.58514 2.35595,1.58514 1.37195,2.35008 3.59958,1.67143 4.47585,1.278 0.13983,-0.994 0.53704,-1.67181 0.97626,-2.05617 -3.41519,-0.38833 -7.00553,-1.7076 -7.00553,-7.6011 0,-1.67965 0.59973,-3.0515 1.58335,-4.12689 -0.15824,-0.38899 -0.68603,-1.95345 0.15078,-4.07025 0,0 1.29123,-0.41354 4.22914,1.57674 1.22665,-0.34178 2.54261,-0.51173 3.85036,-0.51834 1.30604,0.007 2.62191,0.17656 3.85045,0.51834 2.93603,-1.99028 4.22546,-1.57674 4.22546,-1.57674 0.8386,2.1168 0.31091,3.68126 0.15304,4.07025 0.98542,1.07539 1.5807,2.44724 1.5807,4.12689 0,5.90833 -3.5959,7.20833 -7.02213,7.58892 0.55214,0.4751 1.04413,1.41368 1.04413,2.84835 0,2.05614 -0.0189,3.71468 -0.0189,4.21923 0,0.41113 0.27701,0.88955 1.05745,0.73946 6.10594,-2.0377 10.50881,-7.79854 10.50881,-14.59154 0,-8.49455 -6.88637,-15.3802599 -15.38083,-15.3802599" />
  </g>
</svg>
