<?xml version="1.0" encoding="UTF-8" standalone="no"?>
<!-- Created with Inkscape (http://www.inkscape.org/) -->

<svg
   xmlns:dc="http://purl.org/dc/elements/1.1/"
   xmlns:cc="http://creativecommons.org/ns#"
   xmlns:rdf="http://www.w3.org/1999/02/22-rdf-syntax-ns#"
   xmlns:svg="http://www.w3.org/2000/svg"
   xmlns="http://www.w3.org/2000/svg"
   xmlns:sodipodi="http://sodipodi.sourceforge.net/DTD/sodipodi-0.dtd"
   xmlns:inkscape="http://www.inkscape.org/namespaces/inkscape"
   width="115.3275"
   height="151.57367"
   id="svg5147"
   version="1.1"
   inkscape:version="0.48.3.1 r9886"
   sodipodi:docname="New document 41">
  <defs
     id="defs5149" />
  <sodipodi:namedview
     id="base"
     pagecolor="#ffffff"
     bordercolor="#666666"
     borderopacity="1.0"
     inkscape:pageopacity="0.0"
     inkscape:pageshadow="2"
     inkscape:zoom="3.959798"
     inkscape:cx="108.4589"
     inkscape:cy="70.04827"
     inkscape:document-units="px"
     inkscape:current-layer="layer1"
     showgrid="false"
     fit-margin-top="1"
     fit-margin-left="1"
     fit-margin-right="1"
     fit-margin-bottom="1"
     inkscape:window-width="1920"
     inkscape:window-height="1025"
     inkscape:window-x="-2"
     inkscape:window-y="-3"
     inkscape:window-maximized="1" />
  <metadata
     id="metadata5152">
    <rdf:RDF>
      <cc:Work
         rdf:about="">
        <dc:format>image/svg+xml</dc:format>
        <dc:type
           rdf:resource="http://purl.org/dc/dcmitype/StillImage" />
        <dc:title></dc:title>
      </cc:Work>
    </rdf:RDF>
  </metadata>
  <g
     inkscape:label="Layer 1"
     inkscape:groupmode="layer"
     id="layer1"
     transform="translate(0.52089336,0.56750278)">
    <path
       style="fill:#333333;fill-opacity:1"
       d="m 109.65266,13.057876 c -0.22422,-0.16026 -0.45543,-0.30981 -0.69503,-0.45298 -1.0888,-0.65053 -5.22104,-3.5270503 -9.169331,-6.4022303 -6.42912,-4.68173 -7.46565,-5.27312999 -10.05288,-5.63390999 -3.16374,-0.44119 -5.18406,0.16654 -7.16526,2.15233999 -1.47691,1.48037 -7.59031,10.1237003 -7.59291,10.7360803 -7.8e-4,0.25547 6.68513,5.22954 14.85777,11.05354 8.17265,5.824 15.049111,10.60895 15.266411,10.64586 0.68235,0.11596 7.63515,-9.7592 8.30915,-11.80235 1.19707,-3.62891 -0.39508,-7.89195 -3.75792,-10.29635 z m -31.839081,16.85684 c -5.29744,-3.73466 -9.58766,-6.67537 -9.78987,-6.62305 -0.64266,0.16627 -58.3578504,81.448454 -58.2133304,81.983804 0.074,0.27413 6.7601804,5.20884 14.8556004,10.97228 8.09542,5.76344 14.969,10.48893 15.27531,10.49279 0.60625,0.008 58.41815,-81.076924 58.34424,-81.831204 -0.0346,-0.35261 -11.64293,-8.77016 -20.47195,-14.99462 z m -9.928,-1.20149 c 0.58764,0.41669 0.72528,1.22524 0.30858,1.81288 L 16.596419,103.2926 c -0.4167,0.58764 -1.22524,0.72527 -1.8129,0.30857 -0.58764,-0.41668 -0.72528,-1.22523 -0.30859,-1.81288 l 51.59776,-72.766484 c 0.41669,-0.58764 1.22525,-0.72528 1.81289,-0.30858 z m 12.33106,8.74379 c 0.58765,0.41669 0.72528,1.22523 0.30858,1.81288 l -51.59775,72.766494 c -0.4167,0.58764 -1.22525,0.72527 -1.8129,0.30857 -0.58764,-0.41669 -0.72527,-1.22523 -0.30858,-1.81287 l 51.59775,-72.766494 c 0.4167,-0.58765 1.22525,-0.72528 1.8129,-0.30858 z m 13.07357,9.27029 c 0.58765,0.4167 0.72528,1.22524 0.30858,1.81289 l -51.59775,72.766484 c -0.4167,0.58765 -1.22524,0.72527 -1.8129,0.30858 -0.58764,-0.41669 -0.72526,-1.22524 -0.30858,-1.8129 l 51.59775,-72.766474 c 0.41671,-0.58765 1.22525,-0.72527 1.8129,-0.30858 z m -75.2885,78.862644 -13.8652604,-9.81177 -0.45152,2.21043 c -0.25132,1.21672 -0.91509,7.46481 -1.47317,13.87993 -0.55811,6.41513 -1.22663003,13.10948 -1.48862003,14.88523 -0.26198,1.77577 -0.32302,3.24138 -0.13427,3.25236 0.18876,0.0106 5.68456003,-2.4097 12.21049043,-5.38952 6.52592,-2.97983 13.48565,-6.16828 15.46981,-7.06356 1.98416,-0.8953 3.61006,-1.74161 3.60818,-1.88499 -0.002,-0.14339 -6.25002,-4.67807 -13.87562,-10.07814 z"
       id="path4916"
       inkscape:connector-curvature="0" />
  </g>
</svg>
