<?xml version="1.0" encoding="UTF-8" standalone="no"?>
<!-- Created with Inkscape (http://www.inkscape.org/) -->

<svg
   xmlns:dc="http://purl.org/dc/elements/1.1/"
   xmlns:cc="http://creativecommons.org/ns#"
   xmlns:rdf="http://www.w3.org/1999/02/22-rdf-syntax-ns#"
   xmlns:svg="http://www.w3.org/2000/svg"
   xmlns="http://www.w3.org/2000/svg"
   xmlns:sodipodi="http://sodipodi.sourceforge.net/DTD/sodipodi-0.dtd"
   xmlns:inkscape="http://www.inkscape.org/namespaces/inkscape"
   width="49"
   height="28.71875"
   id="svg3003"
   version="1.1"
   inkscape:version="0.48.3.1 r9886"
   sodipodi:docname="mail.svg">
  <defs
     id="defs3005" />
  <sodipodi:namedview
     id="base"
     pagecolor="#ffffff"
     bordercolor="#666666"
     borderopacity="1.0"
     inkscape:pageopacity="0.0"
     inkscape:pageshadow="2"
     inkscape:zoom="9.8994949"
     inkscape:cx="5.4605023"
     inkscape:cy="22.086515"
     inkscape:current-layer="layer1"
     showgrid="true"
     inkscape:grid-bbox="true"
     inkscape:document-units="px"
     fit-margin-top="1"
     fit-margin-left="1"
     fit-margin-right="1"
     fit-margin-bottom="1"
     inkscape:window-width="1920"
     inkscape:window-height="1025"
     inkscape:window-x="-2"
     inkscape:window-y="-3"
     inkscape:window-maximized="1" />
  <metadata
     id="metadata3008">
    <rdf:RDF>
      <cc:Work
         rdf:about="">
        <dc:format>image/svg+xml</dc:format>
        <dc:type
           rdf:resource="http://purl.org/dc/dcmitype/StillImage" />
        <dc:title></dc:title>
      </cc:Work>
    </rdf:RDF>
  </metadata>
  <g
     id="layer1"
     inkscape:label="Layer 1"
     inkscape:groupmode="layer"
     transform="translate(2.3258933,-10.433036)">
    <path
       style="color:#000000;fill:#ffffff;fill-opacity:1;stroke:none;stroke-width:1;marker:none;visibility:visible;display:inline;overflow:visible;enable-background:accumulate"
       d="M 2.65625,4.28125 C 2.220845,4.4643988 1.8632216,4.7708592 1.5625,5.125 L 24.5,22.1875 47.5,5.09375 C 47.203826,4.7551826 46.859167,4.4586199 46.4375,4.28125 l -1.4375,0 -41,0 -1.34375,0 z M 1,6.15625 1,8.75 1,14.78125 1,27.96875 C 1,29.634133 2.3346159,31 4,31 l 41,0 c 1.665384,0 3,-1.365867 3,-3.03125 L 48,14.78125 48,8.75 48,6.1875 24.5,23.625 1,6.15625 z"
       transform="translate(-2.3258933,7.1517855)"
       id="rect5266"
       inkscape:connector-curvature="0" />
  </g>
</svg>
