<?xml version="1.0" encoding="UTF-8" standalone="no"?>
<!-- Created with Inkscape (http://www.inkscape.org/) -->

<svg
   xmlns:dc="http://purl.org/dc/elements/1.1/"
   xmlns:cc="http://creativecommons.org/ns#"
   xmlns:rdf="http://www.w3.org/1999/02/22-rdf-syntax-ns#"
   xmlns:svg="http://www.w3.org/2000/svg"
   xmlns="http://www.w3.org/2000/svg"
   xmlns:sodipodi="http://sodipodi.sourceforge.net/DTD/sodipodi-0.dtd"
   xmlns:inkscape="http://www.inkscape.org/namespaces/inkscape"
   width="136.7778"
   height="157.28964"
   id="svg5330"
   version="1.1"
   inkscape:version="0.48.3.1 r9886"
   sodipodi:docname="New document 53">
  <defs
     id="defs5332" />
  <sodipodi:namedview
     id="base"
     pagecolor="#ffffff"
     bordercolor="#666666"
     borderopacity="1.0"
     inkscape:pageopacity="0.0"
     inkscape:pageshadow="2"
     inkscape:zoom="0.35"
     inkscape:cx="360.53176"
     inkscape:cy="-192.78375"
     inkscape:document-units="px"
     inkscape:current-layer="layer1"
     showgrid="false"
     fit-margin-top="1"
     fit-margin-left="1"
     fit-margin-right="1"
     fit-margin-bottom="1"
     inkscape:window-width="497"
     inkscape:window-height="415"
     inkscape:window-x="0"
     inkscape:window-y="0"
     inkscape:window-maximized="0" />
  <metadata
     id="metadata5335">
    <rdf:RDF>
      <cc:Work
         rdf:about="">
        <dc:format>image/svg+xml</dc:format>
        <dc:type
           rdf:resource="http://purl.org/dc/dcmitype/StillImage" />
        <dc:title></dc:title>
      </cc:Work>
    </rdf:RDF>
  </metadata>
  <g
     inkscape:label="Layer 1"
     inkscape:groupmode="layer"
     id="layer1"
     transform="translate(-14.468243,-182.28879)">
    <path
       style="fill:#333333;fill-opacity:1"
       d="m 74.00177,338.33311 c -6.6646,-0.70337 -11.4668,-2.39624 -15.7908,-5.56666 -1.9402,-1.42254 -5.0035,-7.13445 -4.0048,-7.46738 0.4318,-0.14393 0.6158,-14.39329 0.587,-45.44888 -0.038,-41.1647 0.048,-45.39147 0.9562,-46.92888 0.5489,-0.9293 1.5319,-2.023 2.1843,-2.43045 2.3135,-1.44483 61.9335,-27.05106 62.984,-27.05106 0.5873,0 1.6076,0.5398 2.2674,1.19958 1.0313,1.03148 1.1996,1.99932 1.1996,6.90571 l 0,5.7061 -2.2493,-0.97609 c -5.7644,-2.50154 -3.5798,-3.11815 -31.0107,8.75291 -13.8395,5.98923 -25.8504,11.25423 -26.6909,11.70002 l -1.5282,0.81055 3.3379,1.53747 c 3.782,1.74198 9.4793,2.69065 14.1928,2.36326 3.9194,-0.27224 6.967,-1.47681 39.699,-15.69079 15.6359,-6.78992 26.5542,-11.20991 27.3264,-11.0623 0.7073,0.13516 1.6107,0.7657 2.0074,1.4011 0.6109,0.97833 0.9225,41.45929 0.7107,92.37491 0,1.11196 -1.9604,3.5406 -2.8512,3.5406 -0.9044,0 -56.0707,23.95944 -57.0635,24.78341 -0.4691,0.38937 -0.879,0.59734 -0.9107,0.46218 -0.032,-0.13515 -1.4074,0.0508 -3.0567,0.41303 -4.3143,0.94771 -7.8502,1.14085 -12.2959,0.67166 z m -40.1615,-20.38419 c -7.6036,-1.27562 -13.9783,-4.23124 -16.0693,-7.45038 -0.7423,-1.1427 -1.3495,-2.47039 -1.3495,-2.95036 0,-0.47999 -0.2831,-1.04763 -0.629,-1.2614 -0.4369,-0.27001 -0.4326,-0.62522 0.015,-1.16331 0.4455,-0.53679 0.6297,-14.50819 0.5998,-45.50458 -0.037,-38.41905 0.083,-44.9727 0.8465,-46.45019 0.9017,-1.74381 4.4741,-4.45456 6.6661,-5.05836 1.7308,-0.47678 55.6611,-23.89933 56.4012,-24.49571 0.3412,-0.27486 1.1508,-0.4008 1.7994,-0.27983 0.6485,0.12095 1.4666,0.24059 1.8178,0.26585 1.4108,0.10131 2.3607,3.93504 2.1872,8.82752 l -0.1731,4.88298 -2.9729,-1.43415 c -1.635,-0.78878 -3.6602,-1.43414 -4.5004,-1.43414 -1.7064,0 -51.0866,21.18021 -52.3879,22.47038 -0.7023,0.69605 -0.4033,1.01397 1.9691,2.09474 3.896,1.77482 8.5466,2.52465 13.679,2.20553 3.6544,-0.22722 5.7529,-0.85942 12.7701,-3.84726 13.5499,-5.76928 48.3919,-20.89082 50.7695,-22.03408 2.8153,-1.35373 5.0073,-0.81818 6.2157,1.51856 0.6123,1.18402 0.6964,1.79069 0.2486,1.79069 -0.6782,0 -44.8595,19.00601 -53.3351,22.94372 -5.1332,2.38488 -8.2484,5.07968 -10.2833,8.89562 l -1.4126,2.64892 -0.1752,42.26084 c -0.096,23.24345 -0.2314,42.31564 -0.3,42.38264 -0.069,0.067 -1.4866,0.36867 -3.1511,0.67038 -2.2408,0.40617 -4.6406,0.27778 -9.2445,-0.49462 z"
       id="path3993"
       inkscape:connector-curvature="0" />
  </g>
</svg>
