<?xml version="1.0" encoding="UTF-8" standalone="no"?>
<!-- Created with Inkscape (http://www.inkscape.org/) -->

<svg
   xmlns:dc="http://purl.org/dc/elements/1.1/"
   xmlns:cc="http://creativecommons.org/ns#"
   xmlns:rdf="http://www.w3.org/1999/02/22-rdf-syntax-ns#"
   xmlns:svg="http://www.w3.org/2000/svg"
   xmlns="http://www.w3.org/2000/svg"
   xmlns:sodipodi="http://sodipodi.sourceforge.net/DTD/sodipodi-0.dtd"
   xmlns:inkscape="http://www.inkscape.org/namespaces/inkscape"
   width="90.632256"
   height="167.881"
   id="svg5192"
   version="1.1"
   inkscape:version="0.48.3.1 r9886"
   sodipodi:docname="New document 44">
  <defs
     id="defs5194" />
  <sodipodi:namedview
     id="base"
     pagecolor="#ffffff"
     bordercolor="#666666"
     borderopacity="1.0"
     inkscape:pageopacity="0.0"
     inkscape:pageshadow="2"
     inkscape:zoom="1.979899"
     inkscape:cx="21.662435"
     inkscape:cy="134.34957"
     inkscape:document-units="px"
     inkscape:current-layer="layer1"
     showgrid="false"
     fit-margin-top="1"
     fit-margin-left="1"
     fit-margin-right="1"
     fit-margin-bottom="1"
     inkscape:window-width="1920"
     inkscape:window-height="1025"
     inkscape:window-x="-2"
     inkscape:window-y="-3"
     inkscape:window-maximized="1" />
  <metadata
     id="metadata5197">
    <rdf:RDF>
      <cc:Work
         rdf:about="">
        <dc:format>image/svg+xml</dc:format>
        <dc:type
           rdf:resource="http://purl.org/dc/dcmitype/StillImage" />
        <dc:title></dc:title>
      </cc:Work>
    </rdf:RDF>
  </metadata>
  <g
     inkscape:label="Layer 1"
     inkscape:groupmode="layer"
     id="layer1"
     transform="translate(-600.39815,-739.85025)">
    <path
       inkscape:connector-curvature="0"
       id="path4741"
       d="m 611.89304,905.4349 c -4.91076,-1.55541 -8.34096,-4.76401 -9.80488,-9.17146 -0.9991,-3.00799 -0.98318,-3.27058 0.51081,-8.42601 0.84812,-2.9267 6.63885,-17.21648 12.86828,-31.75507 12.03415,-28.08598 13.68629,-32.80011 14.30662,-40.82149 0.33291,-4.30482 0.19704,-5.5041 -0.9062,-7.99815 -1.44217,-3.26026 -3.92044,-5.12388 -7.59524,-5.7115 -5.02806,-0.80402 -7.20915,-6.5104 -3.65644,-9.56631 2.94002,-2.52889 5.38181,-2.76958 28.0983,-2.76958 22.71649,0 25.15829,0.24069 28.0983,2.76958 3.55271,3.05591 1.37162,8.76229 -3.65643,9.56631 -3.67481,0.58762 -6.15307,2.45124 -7.59524,5.7115 -1.10324,2.49405 -1.23912,3.69333 -0.90621,7.99815 0.62033,8.02138 2.27248,12.73551 14.30662,40.82149 6.22944,14.53859 12.02015,28.82837 12.86828,31.75507 1.49398,5.15543 1.50988,5.41802 0.51082,8.42601 -1.49838,4.51111 -4.87749,7.61334 -10.02461,9.20312 -3.98502,1.23085 -5.63055,1.29207 -33.8249,1.25848 -27.81916,-0.0331 -29.87899,-0.11224 -33.59788,-1.29014 z m 44.35063,-126.33487 c -1.6788,-0.97781 -3.06774,-4.11948 -2.61635,-5.91796 0.48197,-1.92031 3.66489,-4.71823 5.36745,-4.71823 3.6057,0 6.70289,3.77626 5.85804,7.14243 -0.84142,3.35247 -5.56239,5.26833 -8.60914,3.49376 z m -23.73041,-5.92153 c -0.97037,-1.16924 0.15939,-2.82879 1.92574,-2.82879 1.465,0 2.03285,0.9354 1.52989,2.5201 -0.46887,1.47729 -2.34657,1.64502 -3.45563,0.30869 z m 9.59038,-15.80645 c -3.17878,-1.56708 -4.77718,-4.67152 -4.40414,-8.55381 0.25877,-2.69309 0.67837,-3.5591 2.55989,-5.28338 1.23771,-1.13428 2.97325,-2.24376 3.85677,-2.4655 4.12143,-1.03442 9.07997,1.71092 10.41913,5.76863 2.46065,7.45582 -5.31339,14.04323 -12.43165,10.53406 z"
       style="fill:#333333;fill-opacity:1" />
  </g>
</svg>
