<?xml version="1.0" encoding="UTF-8" standalone="no"?>
<!-- Created with Inkscape (http://www.inkscape.org/) -->

<svg
   xmlns:dc="http://purl.org/dc/elements/1.1/"
   xmlns:cc="http://creativecommons.org/ns#"
   xmlns:rdf="http://www.w3.org/1999/02/22-rdf-syntax-ns#"
   xmlns:svg="http://www.w3.org/2000/svg"
   xmlns="http://www.w3.org/2000/svg"
   xmlns:sodipodi="http://sodipodi.sourceforge.net/DTD/sodipodi-0.dtd"
   xmlns:inkscape="http://www.inkscape.org/namespaces/inkscape"
   width="38.914902"
   height="32"
   id="svg3003"
   version="1.1"
   inkscape:version="0.48.3.1 r9886"
   sodipodi:docname="twitter.svg">
  <defs
     id="defs3005" />
  <sodipodi:namedview
     id="base"
     pagecolor="#ffffff"
     bordercolor="#666666"
     borderopacity="1.0"
     inkscape:pageopacity="0.0"
     inkscape:pageshadow="2"
     inkscape:zoom="7"
     inkscape:cx="0.78571471"
     inkscape:cy="14.857144"
     inkscape:current-layer="layer1"
     showgrid="true"
     inkscape:grid-bbox="true"
     inkscape:document-units="px"
     fit-margin-top="1"
     fit-margin-left="1"
     fit-margin-right="1"
     fit-margin-bottom="1"
     inkscape:window-width="1920"
     inkscape:window-height="1025"
     inkscape:window-x="-2"
     inkscape:window-y="-3"
     inkscape:window-maximized="1" />
  <metadata
     id="metadata3008">
    <rdf:RDF>
      <cc:Work
         rdf:about="">
        <dc:format>image/svg+xml</dc:format>
        <dc:type
           rdf:resource="http://purl.org/dc/dcmitype/StillImage" />
        <dc:title />
      </cc:Work>
    </rdf:RDF>
  </metadata>
  <g
     id="layer1"
     inkscape:label="Layer 1"
     inkscape:groupmode="layer"
     transform="translate(-5.428571,-6.8571427)">
    <path
       id="path14"
       style="fill:#ffffff;fill-opacity:1;fill-rule:nonzero;stroke:none"
       d="m 43.343471,11.408355 c -1.358099,0.602452 -2.817899,1.009438 -4.349683,1.192536 1.563346,-0.937269 2.764373,-2.421433 3.329909,-4.1900248 -1.463491,0.8680538 -3.08424,1.4981914 -4.809458,1.8378078 -1.381355,-1.4719812 -3.349658,-2.3915313 -5.528006,-2.3915313 -4.182458,0 -7.573609,3.3908173 -7.573609,7.5732753 0,0.593592 0.06696,1.171679 0.196111,1.725957 C 18.314449,16.840568 12.733802,13.825359 8.99855,9.2432972 8.346559,10.361818 7.973085,11.662884 7.973085,13.050884 c 0,2.627603 1.337008,4.945674 3.369284,6.303773 -1.241485,-0.03931 -2.409343,-0.380039 -3.430352,-0.947237 -7.22e-4,0.03156 -7.22e-4,0.06312 -7.22e-4,0.09524 0,3.669396 2.61064,6.730232 6.075178,7.426207 -0.635417,0.173039 -1.304499,0.265695 -1.995214,0.265695 -0.488033,0 -0.962464,-0.04758 -1.42497,-0.13592 0.963755,3.008712 3.760705,5.198522 7.074814,5.259376 -2.591961,2.031464 -5.85749,3.242236 -9.405865,3.242236 -0.611331,0 -1.214225,-0.03597 -1.806667,-0.105909 3.351615,2.148772 7.332591,3.402797 11.609515,3.402797 13.930428,0 21.548371,-11.540299 21.548371,-21.548519 0,-0.328358 -0.0076,-0.65487 -0.02215,-0.979722 1.479918,-1.067948 2.763819,-2.401683 3.779163,-3.920547"
       inkscape:connector-curvature="0" />
  </g>
</svg>
